<svg viewBox="0 0 15 16" xmlns="http://www.w3.org/2000/svg"><path d="m14.0511237.04210113-1.2778635 14.31531197-5.74404409 1.5924377-5.72822838-1.5901949-1.2765101-14.31755477z" fill="#e44d26"/><path d="m7.03780069 14.7326594 4.64146821-1.2867962 1.0920192-12.23308966h-5.73348741z" fill="#f16529"/><path d="m4.55368906 4.72479076h2.48411163v-1.75600863h-4.4031884l.04203346.4711073.43158732 4.83902933h3.92956762v-1.75596992h-2.32363431z" fill="#ebebeb"/><path d="m4.94943 9.15694241h-1.76273705l.24601367 2.75715509 3.5970122.9985556.00808187-.0022428v-1.8269666l-.00769518.0020495-1.95565787-.5280671z" fill="#ebebeb"/><g fill="#fff"><path d="m7.03172959 8.27891876h2.16230626l-.20382549 2.27738594-1.95848077.5286084v1.8268893l3.59987381-.9977049.026411-.2966704.4126394-4.62294562.0428455-.47153264h-4.08176971z"/><path d="m7.03172959 4.72049847v.00429229h4.24155101l.0352277-.3946969.0800066-.89020443.0419948-.4711073h-4.39878011z"/></g></svg>