<?xml version="1.0" standalone="no"?>
<!DOCTYPE svg PUBLIC "-//W3C//DTD SVG 20010904//EN"
 "http://www.w3.org/TR/2001/REC-SVG-20010904/DTD/svg10.dtd">
<svg version="1.0" xmlns="http://www.w3.org/2000/svg"
 width="50.000000pt" height="50.000000pt" viewBox="0 0 50.000000 50.000000"
 preserveAspectRatio="xMidYMid meet">

<g transform="translate(0.000000,50.000000) scale(0.100000,-0.100000)"
fill="#000000" stroke="none">
<path d="M201 461 c-14 -25 -76 -61 -106 -61 -31 0 -72 -65 -54 -86 15 -18 15
-110 0 -128 -18 -21 23 -86 54 -86 30 0 92 -36 106 -61 14 -27 84 -27 98 0 14
25 76 61 106 61 31 0 72 65 54 86 -15 18 -15 110 0 128 18 21 -23 86 -54 86
-30 0 -92 36 -106 61 -7 14 -21 19 -49 19 -28 0 -42 -5 -49 -19z m84 -21 c3
-11 12 -20 18 -20 7 0 28 -10 47 -22 19 -12 43 -21 52 -19 21 3 42 -35 33 -57
-10 -22 -10 -122 0 -144 9 -22 -12 -60 -33 -57 -9 2 -33 -7 -52 -19 -19 -12
-40 -22 -47 -22 -6 0 -15 -9 -18 -20 -4 -14 -15 -20 -35 -20 -20 0 -31 6 -35
20 -3 11 -12 20 -18 20 -7 0 -28 10 -47 22 -19 12 -43 21 -52 19 -21 -3 -42
35 -33 57 10 22 10 122 0 144 -9 22 12 60 33 57 9 -2 33 7 52 19 19 12 40 22
47 22 6 0 15 9 18 20 4 14 15 20 35 20 20 0 31 -6 35 -20z"/>
<path d="M157 313 c-6 -10 -37 -114 -37 -125 0 -4 5 -8 10 -8 6 0 10 7 10 15
0 9 9 15 25 15 16 0 25 -6 25 -15 0 -8 5 -15 10 -15 13 0 13 7 -6 71 -17 57
-28 76 -37 62z m16 -63 c3 -12 0 -20 -8 -20 -8 0 -11 8 -8 20 3 11 7 20 8 20
1 0 5 -9 8 -20z"/>
<path d="M230 251 c0 -41 4 -71 10 -71 6 0 10 11 10 24 0 19 6 25 28 28 24 3
27 7 27 43 0 39 -1 40 -37 43 l-38 3 0 -70z m60 24 c0 -18 -5 -25 -20 -25 -15
0 -20 7 -20 25 0 18 5 25 20 25 15 0 20 -7 20 -25z"/>
<path d="M335 250 c0 -56 3 -70 15 -70 12 0 15 14 15 70 0 56 -3 70 -15 70
-12 0 -15 -14 -15 -70z"/>
</g>
</svg>
